<?xml version="1.0" encoding="utf-8"?>
<!-- Made by Claudio Z. 2024 (cloudofoz)  -->
<svg version="1.1" id="Layer_1" xmlns="http://www.w3.org/2000/svg" xmlns:xlink="http://www.w3.org/1999/xlink" x="0px" y="0px"
	 viewBox="0 0 16 16" style="enable-background:new 0 0 16 16;" xml:space="preserve">
<style type="text/css">
	.st0{fill:#8DA5F3;}
</style>
<g>
	<g>
		<path class="st0" d="M2.9,1.2c1.9,0,3.8,0,5.7,0.3c1,0.1,1.9,0.3,3,0.7c0.5,0.2,1,0.4,1.7,1c0.3,0.3,0.7,0.8,0.6,1.6
			c-0.1,0.8-0.6,1.1-0.9,1.4l0,0c-0.1,0.1-0.2,0.1-0.3,0.2C11,6.8,9.4,7.4,8,8.1c-1.5,0.7-2.9,1.6-3.8,2.7c-0.2,0.3-0.4,0.6-0.5,0.9
			c0,0.1-0.1,0.3-0.1,0.4l0,0c0,0,0-0.1,0-0.1c0-0.1,0-0.1-0.1-0.2c0-0.1-0.1-0.1-0.1-0.1c0,0,0,0,0.1,0.1C4,12,4.9,12.1,5.7,12.1
			c1.6,0.1,3.3-0.1,5-0.4c0.3-0.1,0.6,0.1,0.6,0.4c0.1,0.3-0.1,0.5-0.4,0.6c-1.7,0.5-3.4,0.8-5.2,0.8c-0.9,0-1.8,0-2.8-0.3
			c-0.1,0-0.3-0.1-0.5-0.2c-0.1-0.1-0.2-0.1-0.3-0.3C2,12.6,2,12.5,2,12.4c0-0.1,0-0.1,0-0.2l0-0.1c0-0.4,0.1-0.6,0.1-0.9
			c0.2-0.5,0.4-1,0.7-1.4C3.9,8.2,5.5,7.2,7,6.3c1.6-0.9,3.2-1.6,4.8-2.3l-0.3,0.2c0,0-0.1,0-0.1,0.3c0,0.3,0.1,0.4,0.1,0.4
			c-0.1-0.1-0.4-0.2-0.8-0.3C10,4.4,9.1,4.2,8.3,4.2C6.5,4.1,4.8,4.1,3,4.2l0,0C2.1,4.3,1.4,3.7,1.4,2.9C1.3,2,1.9,1.3,2.9,1.2
			C2.8,1.3,2.8,1.2,2.9,1.2z"/>
		<g>
			<polygon class="st0" points="11,15.4 15,10.5 8.8,9.5 			"/>
		</g>
	</g>
</g>
</svg>
